<svg version="1.1" xmlns="http://www.w3.org/2000/svg" xmlns:xlink="http://www.w3.org/1999/xlink" width="5.23108" height="5.74195" viewBox="0,0,5.23108,5.74195"><g transform="translate(-237.38446,-177.12902)"><g data-paper-data="{&quot;isPaintingLayer&quot;:true}" fill="#ff6666" fill-rule="nonzero" stroke="none" stroke-width="0.5" stroke-linecap="butt" stroke-linejoin="miter" stroke-miterlimit="10" stroke-dasharray="" stroke-dashoffset="0" style="mix-blend-mode: normal"><path d="M237.38691,181.01504c0,-0.01473 0.00081,-0.02928 0.00239,-0.04359l-0.00239,-0.00553l0.00453,-0.01077c0.0102,-0.06668 0.03715,-0.12784 0.07644,-0.17906l0.14078,-0.18771l0.19587,-0.31828l0.00729,-0.00713l0.00356,-0.00955l0.28233,-0.41066l0.00461,-0.00407l0.00232,-0.00569l0.28233,-0.385l0.01541,-0.0128l0.00939,-0.0177l0.22481,-0.24979l0.22207,-0.27141l0.17669,-0.22717l0.00654,-0.00512l0.00367,-0.00745l0.27071,-0.31992l0.16934,-0.24192l0.0148,-0.01285l0.00877,-0.01753l0.14966,-0.17461l0.20117,-0.25146l0.02959,-0.02254l0.02153,-0.03033l0.16821,-0.14418l0.16899,-0.16899l0.05417,-0.0325l0.04796,-0.04111l0.05133,-0.02567l0.01906,-0.00423l0.00115,-0.00069l0.00088,0.00024l0.17662,-0.03925l0.08986,0.05991l0.10784,0.00599l0.1318,0.15377l0.05133,0.10267l0.00939,0.04224l0.02036,0.03818l0.02567,0.10267v0.01602l0.00639,0.01469l0.04284,0.25703l0.09194,0.20227l0.1538,0.21971l0.25128,0.32666l0.00675,0.01551l0.01233,0.01159l0.22146,0.34449l0.15382,0.19776l0.2137,0.2137l0.0169,0.02816l0.025,0.0213l0.12568,0.17595l0.0186,0.0248l0.0197,0.00985l0.15377,0.1318l0.00599,0.10784l0.05991,0.08986l-0.03925,0.17662l0.00024,0.00088l-0.00069,0.00115l-0.00423,0.01906l-0.02567,0.05133l-0.04111,0.04796l-0.0325,0.05417l-0.0332,0.0332l-0.00087,0.00433l-0.00952,0.00606l-0.00774,0.00774l-0.07742,0.04645l-0.056,0.03564l-0.02058,0.02058l-0.05417,0.0325l-0.028,0.024l-0.04616,0.04616l-0.03356,0.02014l-0.02633,0.02896l-0.01161,0.00774l-0.0455,0.06825l-0.06089,0.12179l-0.07056,0.16465l-0.12411,0.31028l0,0.02702l0.00245,0.00367l-0.00245,0.01102l0,0.01095l-0.0219,0.08759l-0.00377,0.01696v0.94777l-0.04912,0.19648l-0.09377,0.05358l-0.05358,0.09377l-0.19648,0.04912h-0.20533l-0.03112,-0.00778l-0.01799,0.00778l-0.07179,-0.03023l-0.07557,-0.01889l-0.00973,-0.01702l-0.02957,-0.01245l-0.08645,-0.06484l-0.11095,-0.06657l-0.03421,-0.03421l-0.00583,-0.0035l-0.01039,-0.00346l-0.07617,-0.04847l-0.00206,-0.00123l-0.01343,-0.00336l-0.07904,-0.01756l-0.1033,-0.01722l-0.00597,-0.00259l-0.0065,0.00031l-0.09018,-0.01804h-0.24342l-0.06128,-0.01532l-0.06298,-0.00484l-0.0165,-0.0055h-0.00567l-0.01149,0.00985l-0.07973,0.03987l-0.00219,0.00383l-0.01095,0.00274l-0.00979,0.0049l-0.08814,0.01959l-0.08759,0.0219h-0.01095l-0.01102,0.00245l-0.00367,-0.00245h-0.02569l-0.07521,-0.0188l-0.02899,0.00791l-0.0433,-0.02598l-0.04898,-0.01225l-0.01491,-0.02609l-0.04822,-0.02893l-0.03196,-0.00799l-0.11916,-0.02383l-0.03285,-0.01556l-0.03602,-0.00491l-0.09483,-0.03793l-0.08674,-0.01735l-0.14775,-0.02462l-0.02858,-0.01243l-0.03108,-0.00239l-0.13968,-0.04656l-0.04109,-0.01027h-0.10565l-0.00367,0.00245l-0.01102,-0.00245h-0.01095l-0.08759,-0.0219l-0.08814,-0.01959l-0.00979,-0.0049l-0.00473,-0.00118l-0.06706,-0.0149l-0.00088,0.00024l-0.00115,-0.00069l-0.01906,-0.00423l-0.00979,-0.0049l-0.01095,-0.00274l-0.00219,-0.00383l-0.0284,-0.0142l-0.04796,-0.04111l-0.05417,-0.0325l-0.05133,-0.05133l-0.03988,-0.06647l-0.02405,-0.01374l-0.11627,-0.02584l-0.05133,-0.02567l-0.02436,-0.02088l-0.01957,-0.00109l-0.05069,-0.05914l-0.05914,-0.05069l-0.00109,-0.01957l-0.02088,-0.02436l-0.03987,-0.07973l-0.00383,-0.00219l-0.00274,-0.01095l-0.0049,-0.00979l-0.01959,-0.08814l-0.0219,-0.08759v-0.01095l-0.00245,-0.01102l0.00245,-0.00367l0,-0.05139l-0.00245,-0.00367l0.00245,-0.01102v-0.01095l0.0219,-0.08759l0.01959,-0.08814l0.00193,-0.00387c-0.02775,-0.05386 -0.04342,-0.11497 -0.04342,-0.17973z"/></g></g></svg>