<svg version="1.1" xmlns="http://www.w3.org/2000/svg" xmlns:xlink="http://www.w3.org/1999/xlink" width="7.47752" height="8.70933" viewBox="0,0,7.47752,8.70933"><g transform="translate(-236.77615,-174.70555)"><g data-paper-data="{&quot;isPaintingLayer&quot;:true}" fill="#ffeb66" fill-rule="nonzero" stroke="none" stroke-width="0.5" stroke-linecap="butt" stroke-linejoin="miter" stroke-miterlimit="10" stroke-dasharray="" stroke-dashoffset="0" style="mix-blend-mode: normal"><path d="M237.03935,181.56048c-0.01556,-0.04741 -0.01556,-0.08668 -0.01556,-0.08668c0,-0.86892 -0.41728,-2.85553 -0.1685,-3.60734c0.36037,-1.08902 0.97282,0.16133 1.45993,-0.10402c0.14181,-0.07725 0.04787,-0.86655 0.04787,-0.94705c0,-0.33475 -0.18621,-1.75233 0.07322,-1.98191c0.5929,-0.52467 1.11025,0.71932 1.52209,0.94875c1.07109,0.59667 2.46179,0.92047 3.70658,1.19595c1.54903,0.74723 -0.46537,0.99831 -0.32059,1.6659c0.19926,0.91882 0.72602,4.80431 -0.82523,4.04325c-0.765,-0.39186 -1.47414,0.81089 -2.36705,0.72294c-1.30402,-0.12843 -1.59645,-1.18283 -2.72654,-1.40884l-0.26359,-0.12932c0,0 -0.20774,-0.10387 -0.12263,-0.31162z"/></g></g></svg>